# xmcd
#
# Track frame offsets:
#	150
#	14572
#	27924
#	42325
#	53982
#	69766
#	85565
#	98232
#	110565
#	124458
#	135356
#	151974
#	164529
#	180390
#	192594
#	206190
#	220453
#	234457
#	248997
#	262075
#	280333
#
# Disc length: 3916 seconds
#
# Revision: 1
# Processed by: cddbd v1.4PL0 Copyright (c) Steve Scherf et al.
# Submitted via: audiograbber 1.82.02
#
DISCID=370f4a15
DTITLE=Crazy Horse - Tous les tubes
DYEAR=2003
DGENRE=Blues
TTITLE0=J'ai tant besoin de toi
TTITLE1=Ne laisse pas ma vie sans toi
TTITLE2=Et surtout ne m'oublie pas
TTITLE3=L'amour la premi§re fois
TTITLE4=Embrasse moi
TTITLE5=Un jour sans toi
TTITLE6=Que c'est bon de t'aimer
TTITLE7=T'as les yeux bleus d'un ange
TTITLE8=Caline ,divine
TTITLE9=Une fleur rien qu'une rose
TTITLE10=Belle
TTITLE11=Vivre à deux
TTITLE12=De juillet jusqu'à septembre
TTITLE13=Te souviens-tu
TTITLE14=C'est trop facile de me dire je t'aime
TTITLE15=Soumina
TTITLE16=Oui, souviens toi
TTITLE17=Ne rentre pas ce soir
TTITLE18=Quand l'amour
TTITLE19=Viens dans mes bras(Johny Foster)
TTITLE20=Romantique avec toi(Alain Delorme)
EXTD=
EXTT0=
EXTT1=
EXTT2=
EXTT3=
EXTT4=
EXTT5=
EXTT6=
EXTT7=
EXTT8=
EXTT9=
EXTT10=
EXTT11=
EXTT12=
EXTT13=
EXTT14=
EXTT15=
EXTT16=
EXTT17=
EXTT18=
EXTT19=
EXTT20=
PLAYORDER=
